<?xml version="1.0" standalone="no"?>
<!DOCTYPE svg PUBLIC "-//W3C//DTD SVG 20010904//EN"
 "http://www.w3.org/TR/2001/REC-SVG-20010904/DTD/svg10.dtd">
<svg version="1.0" xmlns="http://www.w3.org/2000/svg"
 width="310.000000pt" height="310.000000pt" viewBox="0 0 310.000000 310.000000"
 preserveAspectRatio="xMidYMid meet">
<metadata>
Created by potrace 1.14, written by Peter Selinger 2001-2017
</metadata>
<g transform="translate(0.000000,310.000000) scale(0.100000,-0.100000)"
fill="#000000" stroke="none">
<path d="M270 1945 l0 -855 375 0 375 0 0 590 0 590 155 0 155 0 2 -289 3
-288 269 288 269 289 53 0 54 0 0 265 0 265 -855 0 -855 0 0 -855z"/>
<path d="M1825 1831 l-149 -150 29 -40 c17 -22 147 -198 289 -393 143 -194
270 -368 284 -385 l24 -33 -195 0 -196 0 -82 118 c-45 64 -145 206 -221 314
l-139 197 -74 -77 -74 -77 -1 -237 0 -238 -100 0 c-57 0 -100 -4 -100 -10 0
-14 42 -124 50 -130 4 -3 26 -38 49 -79 51 -86 161 -206 248 -267 263 -188
618 -221 910 -84 314 147 506 439 506 770 0 217 -77 410 -227 567 -162 171
-362 266 -608 288 l-67 6 -3 45 -3 44 -150 -149z"/>
</g>
</svg>
